<?xml version="1.0" encoding="utf-8"?>
<!-- Generator: Adobe Illustrator 21.0.0, SVG Export Plug-In . SVG Version: 6.00 Build 0)  -->
<svg version="1.1" id="Layer_1" xmlns="http://www.w3.org/2000/svg" xmlns:xlink="http://www.w3.org/1999/xlink" x="0px" y="0px"
	 viewBox="0 0 402 310" style="enable-background:new 0 0 402 310;" xml:space="preserve">
<style type="text/css">
	.st0{fill:#414141;}
</style>
<g>
	<path class="st0" d="M400.9,264.5c-0.1-24.1-0.1-48.3-0.1-72.5c0-14.9-6.7-21.6-21.7-21.6c-17.1-0.1-34.1,0-51.2,0
		c-65.5,0-130.9,0-196.4,0c-2.5,0-5,0.1-7.5,0.3c-9.5,1.1-16,7.8-16.1,17.3c-0.1,34.6-0.1,69.3,0,103.9c0,9,6.2,15.6,15.2,17.1
		c0.9,0.2,1.8,0.6,2.8,0.9h257c2.9-1,6-1.6,8.7-3c5.9-3.1,8.5-8.5,9.1-15c0.1-1.7,0.8-3.3,1.2-5v-17
		C401.6,268.2,400.9,266.4,400.9,264.5z M128.4,255c-7.5-0.1-13.5-6.2-13.6-13.8c0-7.8,6.2-14,13.9-13.9c7.5,0.1,13.6,6.3,13.6,13.8
		C142.4,248.7,136,255,128.4,255z M354.5,301.1c-33.5-0.2-67-0.1-100.5-0.1c-33.5,0-67-0.1-100.5,0.1c-4.4,0-6.1-0.9-6.1-5.7
		c0.2-36.8,0.1-73.7,0-110.5c0-4.1,1.2-5.4,5.4-5.4c67.5,0.1,135,0.1,202.5,0c4.3,0,5.2,1.4,5.2,5.4c-0.1,36.8-0.2,73.7,0,110.5
		C360.6,300.2,358.9,301.1,354.5,301.1z"/>
	<path class="st0" d="M140.1,18.6c-0.6-10.2-7.4-16.9-17.6-17.4C121,1,119.5,0.4,118,0h-17c-1.8,0.4-3.7,1.1-5.5,1.1
		c-24.6,0.1-49.2,0-73.8,0c-13.2,0-20.3,7-20.5,20.2c-0.1,5.5,0.1,11-0.1,16.5c0,1.7-0.7,3.4-1.1,5.1v22c0.4,2,1.1,4,1.1,6
		c0.1,67.2,0,134.3,0.1,201.5c0,14.6,6.9,21.5,21.4,21.5c24.2,0,48.3,0,72.5,0h4.5v-39.9H10.5c-0.1-2.2-0.3-4-0.3-5.8
		c0-67,0-134-0.1-201c0-4.7,1.2-6.3,6.1-6.2c36.5,0.2,73,0.2,109.5,0c4.7,0,6.2,1.2,6.2,6.1c-0.2,36.7-0.1,73.3-0.1,110v5.6h8.4
		v-6.3c0-42.8,0-85.7,0-128.5C140.2,24.9,140.2,21.7,140.1,18.6z M72,259.6c7.8,0.1,14,6.5,13.7,14.2c-0.3,7.5-6.6,13.5-14.1,13.4
		c-7.7-0.1-13.9-6.5-13.7-14.2C58.2,265.3,64.4,259.5,72,259.6z"/>
	<path class="st0" d="M251.9,154.4c-4.9-5.8-13.6-8.4-11.3-19c2.2,1.8,4.3,3.4,6.6,5.2c-2.3-36.8-29.4-72.8-90.4-75.8v-6.2
		c24.3,0.6,46.6,6.6,65.8,21.6c19.5,15.2,28.7,36.1,32.9,61.2c1.5-2.7,2.9-5.4,4.4-8.2C265,144.5,256.5,148.1,251.9,154.4z"/>
	<path class="st0" d="M139.2,241.7c-0.3,5.6-5.3,10.2-10.9,10.1c-5.9-0.2-10.5-5.2-10.3-11.2c0.2-6,5.2-10.5,11.2-10.2
		C135.1,230.7,139.5,235.6,139.2,241.7z"/>
	<path class="st0" d="M82.5,273.9c-0.4,5.7-5.3,10.1-11,9.9c-5.8-0.2-10.6-5.4-10.3-11.2c0.3-5.8,5.5-10.5,11.3-10.2
		C78.4,262.8,83,268,82.5,273.9z"/>
</g>
</svg>
