<svg xmlns="http://www.w3.org/2000/svg" xmlns:xlink="http://www.w3.org/1999/xlink" viewBox="0 0 4661 2641.81"><defs><style>.cls-1{fill:#d11111;fill-opacity:0;}</style></defs><title>overlay</title><g id="bg-fill"><image width="1920" height="1080" transform="translate(0 20) scale(2.43)" xlink:href="back-img.png"/></g><g id="icelands"><rect class="cls-1" width="4661" height="2622"/><path class="cls-1" d="M1540.74,1019.79l111-45,69-210,87,87,45-45,69-252,45-45,57,177,54-108,36,21,174-228,57-57,51,198v63l285-150,45-6,66,195,30,81,48,30,57-58.51,87,61.51,81-21,30,163.24,150,43.78v105c0,15-69,90-69,90l-120-21,54,84,30,69-63,49.19-81,76.83-81,54h-93l-144-12-96-57-87-61.83-81-151.2-113.33-21-42.69,84-81-3-138-36-69-9-15,87-30,93-81-9-6-71.94h-93l-21-93.08-57-39-117-15-105-27v-51Z" transform="translate(0 20)"/><polygon class="cls-1" points="3247.91 1429.83 3247.91 1504.84 3193.91 1549.84 3094.9 1549.84 3094.9 1417.83 3118.9 1330.82 3247.91 1297.82 3301.92 1225.81 3349.92 1129.8 3385.93 1063.79 3481.93 1063.79 3526.94 1096.8 3592.95 1063.79 3673.95 1090.8 3700.96 1000.79 3721.96 888.28 3805.97 888.28 3853.97 946.78 3853.97 1006.79 3907.98 1030.79 3982.98 1033.79 4051.99 1072.8 4069.99 1117.8 4127 1177.81 4127 1240.81 4205.01 1273.88 4259.01 1273.88 4325.02 1311 4310.02 1441.83 4277.01 1549.84 4202.01 1627.85 4139 1627.85 4112 1456.83 3835.97 1462.83 3757.96 1522.84 3727.96 1627.85 3685.95 1723.86 3622.95 1723.86 3580.94 1597.85 3529.94 1519.84 3463.93 1483.84 3454.93 1588.85 3352.92 1582.85 3343.92 1489.84 3247.91 1429.83"/><polygon class="cls-1" points="3070.89 1582.85 3133.9 1582.85 3190.91 1656.76 3235.91 1762.86 3313.92 1852.87 3334.92 1999.89 3286.91 2098.9 3184.91 2098.9 3154.9 2047.89 3118.9 2059.89 3121.9 2155.9 3118.9 2272.91 3070.89 2284.92 2989.89 2263.91 2971.88 2080.9 2719.86 2041.89 2662.85 2110.9 2572.84 2158.9 2545.84 2029.89 2557.84 1909.88 2578.84 1798.87 2653.85 1804.87 2650.85 1699.86 2716.86 1600.85 2806.87 1546.84 2940.38 1525.84 3031.89 1525.84 3070.89 1582.85"/><polygon class="cls-1" points="1999.79 1786.87 2107.8 1873.88 2107.8 1905.38 2164.8 1981.89 2164.8 2080.9 2182.8 2128.9 2284.82 2152.9 2330.5 2209.91 2330.5 2266.91 2330.5 2323.92 2275.81 2323.92 2254.81 2284.92 2128.8 2284.92 2137.8 2350.92 2116.8 2395.93 2056.79 2395.93 1999.79 2332.92 1948.78 2341.92 1927.78 2377.93 1876.77 2395.93 1831.77 2371.93 1810.77 2395.93 1780.76 2425.93 1726.76 2425.93 1684.76 2365.93 1645.75 2320.92 1567.74 2284.92 1540.74 2311.92 1486.73 2320.92 1474.73 2272.91 1474.73 2221.91 1527 2176.91 1741.76 2106.4 1771.76 2059.89 1816.77 2026.89 1858.77 2038.89 1873.77 2083.9 1915.78 2017.89 1902.62 1905.38 1902.62 1849.87 1999.79 1786.87"/><polygon class="cls-1" points="1843.77 1765.87 1921.78 1696.86 1921.78 1639.85 1843.77 1543.84 1771.76 1513.84 1717.76 1459.83 1672.75 1525.84 1633.75 1564.85 1543.74 1612.85 1498.74 1669.86 1498.74 1723.86 1573.74 1765.87 1621.75 1786.87 1666.75 1822.87 1687.76 1882.88 1693.76 1945.88 1747.76 1945.88 1780.76 1905.38 1828.77 1855.87 1831.77 1786.87 1843.77 1765.87"/><path class="cls-1" d="M1378.72,1982.89l120,24-24,79.51-96,88.51-120,45-87,78-27,108-33,60s-66-24-78-24-90-15-90-15v-39l-96,18-30-87-81-54-132-108-54-70.51v-58.51l99-24,78-93,18-84,36-45,18-60,24-18,27-39,54,39,12,42,57-27,63-15h45l-21,63,66,63,45-3,48-12,39,27,42,43.5,18,40.5Z" transform="translate(0 20)"/><path class="cls-1" d="M1357.72,1460.84h-60l-54,45h-36l-93-22.5-27,43.5-48,57L988.18,1632l-56.5-39.16-84,12s-39-6-48-12-42-29.84-48-46.43-15-37.58-15-52.58v-54s54-9,63-18-18-42-18-42l-63-15v-54l-45-39v-42l-42-87v-81l36-60,30-78,57-52.78h45l18,76.78-9,45,72,39h69l45-6,57,12-27,42,42,24,63,51-9,36,27,39h27l18-39,54,12h84l57,48.7,54,34.56,33,45.75,24,39-24,51-36,18-30,81-36,12Z" transform="translate(0 20)"/></g></svg>